# File produced by Open Asset Import Library (http://www.assimp.sf.net)
# (assimp v5.0.1588609223)

mtllib result.mtl

# 162 vertex positions
v  -0.016388033 0.062452521 0.20000988
v  0.033611968 0.062452521 0.20000988
v  0.033457838 0.062452521 0.19608693
v  -0.016388033 -0.13754748 0.20000988
v  0.033457838 -0.13754748 0.19608693
v  0.033611968 -0.13754748 0.20000988
v  0.03299639 0.062452521 0.19218816
v  0.03299639 -0.13754748 0.19218816
v  0.032230467 0.062452521 0.18833761
v  0.032230467 -0.13754748 0.18833761
v  0.031164795 0.062452521 0.18455903
v  0.031164795 -0.13754748 0.18455903
v  0.029805943 0.062452521 0.18087572
v  0.029805943 -0.13754748 0.18087572
v  0.028162297 0.062452521 0.17731036
v  0.028162297 -0.13754748 0.17731036
v  0.026243977 0.062452521 0.17388496
v  0.026243977 -0.13754748 0.17388496
v  0.024062816 0.062452521 0.17062062
v  0.024062816 -0.13754748 0.17062062
v  0.021632262 0.062452521 0.16753748
v  0.021632262 -0.13754748 0.16753748
v  0.018967304 0.062452521 0.16465454
v  0.018967304 -0.13754748 0.16465454
v  0.016084369 0.062452521 0.16198958
v  0.016084369 -0.13754748 0.16198958
v  0.013001231 0.062452521 0.15955903
v  0.013001231 -0.13754748 0.15955903
v  0.0097368918 0.062452521 0.15737787
v  0.0097368918 -0.13754748 0.15737787
v  0.0063114949 0.062452521 0.15545955
v  0.0063114949 -0.13754748 0.15545955
v  0.0027461406 0.062452521 0.1538159
v  0.0027461406 -0.13754748 0.1538159
v  -0.00093718432 0.062452521 0.15245706
v  -0.00093718432 -0.13754748 0.15245706
v  -0.0047157677 0.062452521 0.15139139
v  -0.0047157677 -0.13754748 0.15139139
v  -0.0085663144 0.062452521 0.15062547
v  -0.0085663144 -0.13754748 0.15062547
v  -0.012465078 0.062452521 0.15016401
v  -0.012465078 -0.13754748 0.15016401
v  -0.016388038 0.062452521 0.15000989
v  -0.016388038 -0.13754748 0.15000989
v  -0.020310987 0.062452521 0.15016401
v  -0.020310987 -0.13754748 0.15016401
v  -0.024209751 0.062452521 0.15062547
v  -0.024209751 -0.13754748 0.15062547
v  -0.028060298 0.062452521 0.15139139
v  -0.028060298 -0.13754748 0.15139139
v  -0.031838879 0.062452521 0.15245706
v  -0.031838879 -0.13754748 0.15245706
v  -0.035522208 0.062452521 0.1538159
v  -0.035522208 -0.13754748 0.1538159
v  -0.03908756 0.062452521 0.15545955
v  -0.03908756 -0.13754748 0.15545955
v  -0.042512964 0.062452521 0.15737787
v  -0.042512964 -0.13754748 0.15737787
v  -0.045777291 0.062452521 0.15955903
v  -0.045777291 -0.13754748 0.15955903
v  -0.048860431 0.062452521 0.16198957
v  -0.048860431 -0.13754748 0.16198957
v  -0.05174337 0.062452521 0.16465454
v  -0.05174337 -0.13754748 0.16465454
v  -0.054408327 0.062452521 0.16753748
v  -0.054408327 -0.13754748 0.16753748
v  -0.056838881 0.062452521 0.17062062
v  -0.056838881 -0.13754748 0.17062062
v  -0.059020042 0.062452521 0.17388496
v  -0.059020042 -0.13754748 0.17388496
v  -0.060938362 0.062452521 0.17731036
v  -0.060938362 -0.13754748 0.17731036
v  -0.062582016 0.062452521 0.18087572
v  -0.062582016 -0.13754748 0.18087572
v  -0.06394086 0.062452521 0.18455903
v  -0.06394086 -0.13754748 0.18455903
v  -0.065006532 0.062452521 0.18833761
v  -0.065006532 -0.13754748 0.18833761
v  -0.065772451 0.062452521 0.19218816
v  -0.065772451 -0.13754748 0.19218816
v  -0.066233903 0.062452521 0.19608693
v  -0.066233903 -0.13754748 0.19608693
v  -0.066388033 0.062452521 0.20000988
v  -0.066388033 -0.13754748 0.20000988
v  -0.066233903 0.062452521 0.20393284
v  -0.066233903 -0.13754748 0.20393284
v  -0.065772451 0.062452521 0.20783161
v  -0.065772451 -0.13754748 0.20783161
v  -0.065006532 0.062452521 0.21168216
v  -0.065006532 -0.13754748 0.21168216
v  -0.06394086 0.062452521 0.21546073
v  -0.06394086 -0.13754748 0.21546073
v  -0.062582016 0.062452521 0.21914405
v  -0.062582016 -0.13754748 0.21914405
v  -0.060938362 0.062452521 0.2227094
v  -0.060938362 -0.13754748 0.2227094
v  -0.059020042 0.062452521 0.22613481
v  -0.059020042 -0.13754748 0.22613481
v  -0.056838881 0.062452521 0.22939914
v  -0.056838881 -0.13754748 0.22939914
v  -0.054408327 0.062452521 0.23248228
v  -0.054408327 -0.13754748 0.23248228
v  -0.05174337 0.062452521 0.23536523
v  -0.05174337 -0.13754748 0.23536523
v  -0.048860431 0.062452521 0.2380302
v  -0.048860431 -0.13754748 0.2380302
v  -0.045777291 0.062452521 0.24046074
v  -0.045777291 -0.13754748 0.24046074
v  -0.042512953 0.062452521 0.2426419
v  -0.042512953 -0.13754748 0.2426419
v  -0.039087549 0.062452521 0.24456021
v  -0.039087549 -0.13754748 0.24456021
v  -0.035522193 0.062452521 0.24620387
v  -0.035522193 -0.13754748 0.24620387
v  -0.031838894 0.062452521 0.24756271
v  -0.031838894 -0.13754748 0.24756271
v  -0.02806031 0.062452521 0.24862838
v  -0.02806031 -0.13754748 0.24862838
v  -0.024209764 0.062452521 0.2493943
v  -0.024209764 -0.13754748 0.2493943
v  -0.020310991 0.062452521 0.24985576
v  -0.020310991 -0.13754748 0.24985576
v  -0.016388036 0.062452521 0.25000989
v  -0.016388036 -0.13754748 0.25000989
v  -0.012465081 0.062452521 0.24985576
v  -0.012465081 -0.13754748 0.24985576
v  -0.0085663144 0.062452521 0.2493943
v  -0.0085663144 -0.13754748 0.2493943
v  -0.0047157677 0.062452521 0.24862838
v  -0.0047157677 -0.13754748 0.24862838
v  -0.00093718432 0.062452521 0.24756271
v  -0.00093718432 -0.13754748 0.24756271
v  0.0027461406 0.062452521 0.24620387
v  0.0027461406 -0.13754748 0.24620387
v  0.0063114949 0.062452521 0.24456021
v  0.0063114949 -0.13754748 0.24456021
v  0.0097368993 0.062452521 0.2426419
v  0.0097368993 -0.13754748 0.2426419
v  0.013001233 0.062452521 0.24046072
v  0.013001233 -0.13754748 0.24046072
v  0.016084377 0.062452521 0.23803018
v  0.016084377 -0.13754748 0.23803018
v  0.018967312 0.062452521 0.23536521
v  0.018967312 -0.13754748 0.23536521
v  0.021632276 0.062452521 0.23248228
v  0.021632276 -0.13754748 0.23248228
v  0.024062824 0.062452521 0.22939914
v  0.024062824 -0.13754748 0.22939914
v  0.02624397 0.062452521 0.22613482
v  0.02624397 -0.13754748 0.22613482
v  0.028162289 0.062452521 0.22270942
v  0.028162289 -0.13754748 0.22270942
v  0.029805943 0.062452521 0.21914406
v  0.029805943 -0.13754748 0.21914406
v  0.031164795 0.062452521 0.21546073
v  0.031164795 -0.13754748 0.21546073
v  0.032230467 0.062452521 0.21168216
v  0.032230467 -0.13754748 0.21168216
v  0.032996386 0.062452521 0.20783161
v  0.032996386 -0.13754748 0.20783161
v  0.033457838 0.062452521 0.20393284
v  0.033457838 -0.13754748 0.20393284

# 0 UV coordinates

# 82 vertex normals
vn 0 0.001 0
vn 0 -0.001 0
vn 0.001 0 0
vn 0.00099691737 0 -7.8459103e-05
vn 0.00098768843 0 -0.00015643449
vn 0.00097236998 0 -0.00023344539
vn 0.0009510566 0 -0.00030901702
vn 0.00092387962 0 -0.00038268344
vn 0.00089100655 0 -0.00045399051
vn 0.00085264019 0 -0.00052249857
vn 0.00080901699 0 -0.00058778533
vn 0.00076040602 0 -0.00064944819
vn 0.00070710678 0 -0.00070710684
vn 0.00064944808 0 -0.00076040602
vn 0.00058778527 0 -0.00080901704
vn 0.00052249851 0 -0.00085264025
vn 0.00045399056 0 -0.00089100655
vn 0.00038268347 0 -0.00092387962
vn 0.00030901696 0 -0.0009510566
vn 0.00023344529 0 -0.00097237004
vn 0.00015643437 0 -0.00098768843
vn 7.8459088e-05 0 -0.00099691737
vn -1.1920931e-10 0 -0.001
vn -7.8459088e-05 0 -0.00099691737
vn -0.00015643437 0 -0.00098768843
vn -0.00023344529 0 -0.00097237004
vn -0.00030901696 0 -0.0009510566
vn -0.00038268347 0 -0.00092387962
vn -0.00045399056 0 -0.00089100655
vn -0.00052249862 0 -0.00085264019
vn -0.00058778515 0 -0.00080901716
vn -0.00064944802 0 -0.00076040614
vn -0.00070710672 0 -0.00070710684
vn -0.00076040602 0 -0.00064944819
vn -0.00080901699 0 -0.00058778533
vn -0.00085264019 0 -0.00052249857
vn -0.00089100655 0 -0.00045399051
vn -0.00092387962 0 -0.00038268339
vn -0.00095105666 0 -0.00030901693
vn -0.00097236998 0 -0.00023344548
vn -0.00098768843 0 -0.00015643454
vn -0.00099691737 0 -7.8459132e-05
vn -0.001 0 0
vn -0.00099691737 0 7.8459132e-05
vn -0.00098768843 0 0.00015643454
vn -0.00097236998 0 0.00023344548
vn -0.00095105666 0 0.00030901693
vn -0.00092387962 0 0.00038268339
vn -0.00089100655 0 0.00045399051
vn -0.00085264019 0 0.00052249857
vn -0.00080901699 0 0.00058778533
vn -0.00076040602 0 0.00064944819
vn -0.00070710672 0 0.00070710684
vn -0.00064944802 0 0.00076040614
vn -0.00058778515 0 0.00080901716
vn -0.00052249839 0 0.00085264037
vn -0.0004539903 0 0.00089100667
vn -0.00038268321 0 0.00092387974
vn -0.00030901722 0 0.00095105654
vn -0.00023344556 0 0.00097236998
vn -0.0001564346 0 0.00098768843
vn -7.8459154e-05 0 0.00099691737
vn -5.9604648e-11 0 0.001
vn 7.845903e-05 0 0.00099691737
vn 0.00015643437 0 0.00098768843
vn 0.00023344529 0 0.00097237004
vn 0.00030901696 0 0.0009510566
vn 0.00038268347 0 0.00092387962
vn 0.00045399056 0 0.00089100655
vn 0.00052249862 0 0.00085264019
vn 0.00058778533 0 0.00080901699
vn 0.00064944819 0 0.00076040591
vn 0.0007071069 0 0.00070710672
vn 0.0007604062 0 0.00064944796
vn 0.00080901716 0 0.00058778509
vn 0.00085264008 0 0.00052249886
vn 0.00089100649 0 0.00045399071
vn 0.00092387956 0 0.00038268362
vn 0.00095105654 0 0.00030901714
vn 0.00097236998 0 0.00023344548
vn 0.00098768843 0 0.00015643454
vn 0.00099691737 0 7.8459132e-05

# Mesh 'mesh_id41' with 320 faces
g mesh_id41
usemtl 83
f  1//1 2//1 3//1
f  4//2 5//2 6//2
f  2//3 5//4 3//4
f  5//4 2//3 6//3
f  1//1 3//1 7//1
f  4//2 8//2 5//2
f  3//4 8//5 7//5
f  8//5 3//4 5//4
f  1//1 7//1 9//1
f  4//2 10//2 8//2
f  7//5 10//6 9//6
f  10//6 7//5 8//5
f  1//1 9//1 11//1
f  4//2 12//2 10//2
f  9//6 12//7 11//7
f  12//7 9//6 10//6
f  1//1 11//1 13//1
f  4//2 14//2 12//2
f  11//7 14//8 13//8
f  14//8 11//7 12//7
f  1//1 13//1 15//1
f  4//2 16//2 14//2
f  13//8 16//9 15//9
f  16//9 13//8 14//8
f  1//1 15//1 17//1
f  4//2 18//2 16//2
f  15//9 18//10 17//10
f  18//10 15//9 16//9
f  1//1 17//1 19//1
f  4//2 20//2 18//2
f  17//10 20//11 19//11
f  20//11 17//10 18//10
f  1//1 19//1 21//1
f  4//2 22//2 20//2
f  19//11 22//12 21//12
f  22//12 19//11 20//11
f  1//1 21//1 23//1
f  4//2 24//2 22//2
f  21//12 24//13 23//13
f  24//13 21//12 22//12
f  1//1 23//1 25//1
f  4//2 26//2 24//2
f  23//13 26//14 25//14
f  26//14 23//13 24//13
f  1//1 25//1 27//1
f  4//2 28//2 26//2
f  25//14 28//15 27//15
f  28//15 25//14 26//14
f  1//1 27//1 29//1
f  4//2 30//2 28//2
f  27//15 30//16 29//16
f  30//16 27//15 28//15
f  1//1 29//1 31//1
f  4//2 32//2 30//2
f  29//16 32//17 31//17
f  32//17 29//16 30//16
f  1//1 31//1 33//1
f  4//2 34//2 32//2
f  31//17 34//18 33//18
f  34//18 31//17 32//17
f  1//1 33//1 35//1
f  4//2 36//2 34//2
f  33//18 36//19 35//19
f  36//19 33//18 34//18
f  1//1 35//1 37//1
f  4//2 38//2 36//2
f  35//19 38//20 37//20
f  38//20 35//19 36//19
f  1//1 37//1 39//1
f  4//2 40//2 38//2
f  37//20 40//21 39//21
f  40//21 37//20 38//20
f  1//1 39//1 41//1
f  4//2 42//2 40//2
f  39//21 42//22 41//22
f  42//22 39//21 40//21
f  1//1 41//1 43//1
f  4//2 44//2 42//2
f  41//22 44//23 43//23
f  44//23 41//22 42//22
f  1//1 43//1 45//1
f  4//2 46//2 44//2
f  43//23 46//24 45//24
f  46//24 43//23 44//23
f  1//1 45//1 47//1
f  4//2 48//2 46//2
f  45//24 48//25 47//25
f  48//25 45//24 46//24
f  1//1 47//1 49//1
f  4//2 50//2 48//2
f  47//25 50//26 49//26
f  50//26 47//25 48//25
f  1//1 49//1 51//1
f  4//2 52//2 50//2
f  49//26 52//27 51//27
f  52//27 49//26 50//26
f  1//1 51//1 53//1
f  4//2 54//2 52//2
f  51//27 54//28 53//28
f  54//28 51//27 52//27
f  1//1 53//1 55//1
f  4//2 56//2 54//2
f  53//28 56//29 55//29
f  56//29 53//28 54//28
f  1//1 55//1 57//1
f  4//2 58//2 56//2
f  55//29 58//30 57//30
f  58//30 55//29 56//29
f  1//1 57//1 59//1
f  4//2 60//2 58//2
f  57//30 60//31 59//31
f  60//31 57//30 58//30
f  1//1 59//1 61//1
f  4//2 62//2 60//2
f  59//31 62//32 61//32
f  62//32 59//31 60//31
f  1//1 61//1 63//1
f  4//2 64//2 62//2
f  61//32 64//33 63//33
f  64//33 61//32 62//32
f  1//1 63//1 65//1
f  4//2 66//2 64//2
f  63//33 66//34 65//34
f  66//34 63//33 64//33
f  1//1 65//1 67//1
f  4//2 68//2 66//2
f  65//34 68//35 67//35
f  68//35 65//34 66//34
f  1//1 67//1 69//1
f  4//2 70//2 68//2
f  67//35 70//36 69//36
f  70//36 67//35 68//35
f  1//1 69//1 71//1
f  4//2 72//2 70//2
f  69//36 72//37 71//37
f  72//37 69//36 70//36
f  1//1 71//1 73//1
f  4//2 74//2 72//2
f  71//37 74//38 73//38
f  74//38 71//37 72//37
f  1//1 73//1 75//1
f  4//2 76//2 74//2
f  73//38 76//39 75//39
f  76//39 73//38 74//38
f  1//1 75//1 77//1
f  4//2 78//2 76//2
f  75//39 78//40 77//40
f  78//40 75//39 76//39
f  1//1 77//1 79//1
f  4//2 80//2 78//2
f  77//40 80//41 79//41
f  80//41 77//40 78//40
f  1//1 79//1 81//1
f  4//2 82//2 80//2
f  79//41 82//42 81//42
f  82//42 79//41 80//41
f  1//1 81//1 83//1
f  4//2 84//2 82//2
f  81//42 84//43 83//43
f  84//43 81//42 82//42
f  1//1 83//1 85//1
f  4//2 86//2 84//2
f  83//43 86//44 85//44
f  86//44 83//43 84//43
f  1//1 85//1 87//1
f  4//2 88//2 86//2
f  85//44 88//45 87//45
f  88//45 85//44 86//44
f  1//1 87//1 89//1
f  4//2 90//2 88//2
f  87//45 90//46 89//46
f  90//46 87//45 88//45
f  1//1 89//1 91//1
f  4//2 92//2 90//2
f  89//46 92//47 91//47
f  92//47 89//46 90//46
f  1//1 91//1 93//1
f  4//2 94//2 92//2
f  91//47 94//48 93//48
f  94//48 91//47 92//47
f  1//1 93//1 95//1
f  4//2 96//2 94//2
f  93//48 96//49 95//49
f  96//49 93//48 94//48
f  1//1 95//1 97//1
f  4//2 98//2 96//2
f  95//49 98//50 97//50
f  98//50 95//49 96//49
f  1//1 97//1 99//1
f  4//2 100//2 98//2
f  97//50 100//51 99//51
f  100//51 97//50 98//50
f  1//1 99//1 101//1
f  4//2 102//2 100//2
f  99//51 102//52 101//52
f  102//52 99//51 100//51
f  1//1 101//1 103//1
f  4//2 104//2 102//2
f  101//52 104//53 103//53
f  104//53 101//52 102//52
f  1//1 103//1 105//1
f  4//2 106//2 104//2
f  103//53 106//54 105//54
f  106//54 103//53 104//53
f  1//1 105//1 107//1
f  4//2 108//2 106//2
f  105//54 108//55 107//55
f  108//55 105//54 106//54
f  1//1 107//1 109//1
f  4//2 110//2 108//2
f  107//55 110//56 109//56
f  110//56 107//55 108//55
f  1//1 109//1 111//1
f  4//2 112//2 110//2
f  109//56 112//57 111//57
f  112//57 109//56 110//56
f  1//1 111//1 113//1
f  4//2 114//2 112//2
f  111//57 114//58 113//58
f  114//58 111//57 112//57
f  1//1 113//1 115//1
f  4//2 116//2 114//2
f  113//58 116//59 115//59
f  116//59 113//58 114//58
f  1//1 115//1 117//1
f  4//2 118//2 116//2
f  115//59 118//60 117//60
f  118//60 115//59 116//59
f  1//1 117//1 119//1
f  4//2 120//2 118//2
f  117//60 120//61 119//61
f  120//61 117//60 118//60
f  1//1 119//1 121//1
f  4//2 122//2 120//2
f  119//61 122//62 121//62
f  122//62 119//61 120//61
f  1//1 121//1 123//1
f  4//2 124//2 122//2
f  121//62 124//63 123//63
f  124//63 121//62 122//62
f  1//1 123//1 125//1
f  4//2 126//2 124//2
f  123//63 126//64 125//64
f  126//64 123//63 124//63
f  1//1 125//1 127//1
f  4//2 128//2 126//2
f  125//64 128//65 127//65
f  128//65 125//64 126//64
f  1//1 127//1 129//1
f  4//2 130//2 128//2
f  127//65 130//66 129//66
f  130//66 127//65 128//65
f  1//1 129//1 131//1
f  4//2 132//2 130//2
f  129//66 132//67 131//67
f  132//67 129//66 130//66
f  1//1 131//1 133//1
f  4//2 134//2 132//2
f  131//67 134//68 133//68
f  134//68 131//67 132//67
f  1//1 133//1 135//1
f  4//2 136//2 134//2
f  133//68 136//69 135//69
f  136//69 133//68 134//68
f  1//1 135//1 137//1
f  4//2 138//2 136//2
f  135//69 138//70 137//70
f  138//70 135//69 136//69
f  1//1 137//1 139//1
f  4//2 140//2 138//2
f  137//70 140//71 139//71
f  140//71 137//70 138//70
f  1//1 139//1 141//1
f  4//2 142//2 140//2
f  139//71 142//72 141//72
f  142//72 139//71 140//71
f  1//1 141//1 143//1
f  4//2 144//2 142//2
f  141//72 144//73 143//73
f  144//73 141//72 142//72
f  1//1 143//1 145//1
f  4//2 146//2 144//2
f  143//73 146//74 145//74
f  146//74 143//73 144//73
f  1//1 145//1 147//1
f  4//2 148//2 146//2
f  145//74 148//75 147//75
f  148//75 145//74 146//74
f  1//1 147//1 149//1
f  4//2 150//2 148//2
f  147//75 150//76 149//76
f  150//76 147//75 148//75
f  1//1 149//1 151//1
f  4//2 152//2 150//2
f  149//76 152//77 151//77
f  152//77 149//76 150//76
f  1//1 151//1 153//1
f  4//2 154//2 152//2
f  151//77 154//78 153//78
f  154//78 151//77 152//77
f  1//1 153//1 155//1
f  4//2 156//2 154//2
f  153//78 156//79 155//79
f  156//79 153//78 154//78
f  1//1 155//1 157//1
f  4//2 158//2 156//2
f  155//79 158//80 157//80
f  158//80 155//79 156//79
f  1//1 157//1 159//1
f  4//2 160//2 158//2
f  157//80 160//81 159//81
f  160//81 157//80 158//80
f  1//1 159//1 161//1
f  4//2 162//2 160//2
f  159//81 162//82 161//82
f  162//82 159//81 160//81
f  1//1 161//1 2//1
f  4//2 6//2 162//2
f  161//82 6//3 2//3
f  6//3 161//82 162//82

